<?xml version="1.0" encoding="utf-8"?>
<!-- Generator: Adobe Illustrator 16.0.0, SVG Export Plug-In . SVG Version: 6.00 Build 0)  -->
<!DOCTYPE svg PUBLIC "-//W3C//DTD SVG 1.1//EN" "http://www.w3.org/Graphics/SVG/1.1/DTD/svg11.dtd">
<svg version="1.1" id="Layer_1" xmlns="http://www.w3.org/2000/svg" xmlns:xlink="http://www.w3.org/1999/xlink" x="0px" y="0px"
	 width="1440px" height="900px" viewBox="0 0 1440 900" enable-background="new 0 0 1440 900" xml:space="preserve">
<title>BA.Web.TestStories.Channel4.Vector.1</title>
<path fill="#FFFFFF" d="M209.491,46.55l16.273,46.19H193.38L209.491,46.55z M200.656,26.091l-40.144,109.43h17.811l9.921-28.364
	h42.48l10.075,28.364h17.98l-39.989-109.43H200.656z"/>
<path fill="#FFFFFF" d="M54.405,531.6c21.7,0,40.144-10.075,47.583-28.519l-13.483-7.751c-5.735,12.708-17.669,20.613-33.788,20.613
	c-20.15,0-37.044-15.19-37.044-40.919s16.891-40.918,36.89-40.918c16.585,0,27.59,8.214,33.325,20.613l13.329-7.905
	c-7.285-17.98-24.639-28.364-46.808-28.364c-31,0-54.405,22.938-54.405,56.575S23.407,531.6,54.408,531.6 M109.896,529.738h16.119
	v-46.193c0-12.4,8.214-19.064,17.36-19.064c10.229,0,15.656,6.51,15.656,16.895v48.357h16.273v-51.148
	c0-18.601-10.075-29.139-25.729-29.139c-11.004,0-20.15,6.044-23.715,15.344v-48.357h-15.965L109.896,529.738z M209.868,531.288
	c10.39,0,20.459-4.34,25.265-12.866l0.155,0.93c1.549,8.214,7.593,10.39,13.64,10.39h8.06v-12.399h-3.265
	c-2.479,0-3.411-1.087-3.411-3.411v-35.804c0-18.135-11.625-28.676-31.001-28.676c-14.724,0-25.886,6.044-32.238,15.965l10.538,9.3
	c4.961-6.664,11.934-10.687,20.614-10.687c9.921,0,15.811,5.427,15.811,15.036v4.648H213.73c-16.274,0-31,6.827-31,23.559
	c0,14.878,11.159,24.024,27.124,24.024 M213.727,517.968c-8.525,0-14.415-4.34-14.415-11.625c0-7.438,6.044-11.004,15.499-11.004
	h19.375v3.562c0,12.711-9.921,19.063-20.459,19.063 M264.566,529.744h16.119v-46.199c0-12.4,7.905-19.064,18.135-19.064
	c9.146,0,14.878,5.424,14.878,15.811v49.444h16.277v-52.074c0-17.812-10.23-28.201-25.266-28.201
	c-11.471,0-20.459,5.735-24.179,15.345v-13.483h-15.965V529.744z M343.304,529.744h16.119v-46.199
	c0-12.4,7.905-19.064,18.135-19.064c9.146,0,14.881,5.424,14.881,15.811v49.444h16.273v-52.074
	c0-17.812-10.229-28.201-25.265-28.201c-11.47,0-20.459,5.735-24.179,15.345v-13.483h-15.965V529.744z M493.032,488.668
	c0-20.925-13.952-39.214-38.128-39.214c-23.25,0-38.44,18.289-38.44,40.918c0,22.476,14.879,41.23,40.765,41.23
	c15.189,0,27.281-6.198,33.479-17.515l-10.688-8.834c-5.426,8.525-13.485,11.779-22.629,11.779c-15.036,0-22.784-9.764-24.49-21.7
	h59.668c0.325-2.207,0.481-4.435,0.466-6.665 M476.449,483.708h-43.233c1.861-11.625,9.3-19.839,21.854-19.839
	c12.711,0,20.613,8.834,21.389,19.53L476.449,483.708z M517.214,529.741h11.471v-14.415h-6.828c-3.72,0-4.806-1.55-4.806-4.494
	v-94.4h-16.119v97.493c0,9.146,5.426,15.811,16.273,15.811 M600.592,529.735h15.965v-24.639h14.724v-13.329h-14.724v-63.705h-13.795
	l-53.452,64.789v12.245h51.306L600.592,529.735z M565.734,491.768l34.875-42.153v42.153H565.734z"/>
<path fill="#FFFFFF" d="M168.192,398.348h16.119v-64.486h17.678v-13.641h-17.678v-12.554c0-5.27,2.791-8.372,9.146-8.372h8.532
	v-14.249h-12.097c-14.104,0-21.7,7.905-21.7,21.077v14.104H155.33v13.641h12.866L168.192,398.348z M229.728,399.896
	c10.39,0,20.459-4.34,25.265-12.865l0.154,0.929c1.55,8.214,7.594,10.391,13.641,10.391h8.06v-12.4h-3.266
	c-2.479,0-3.411-1.086-3.411-3.41v-35.812c0-18.136-11.625-28.674-31-28.674c-14.724,0-25.886,6.044-32.239,15.965l10.542,9.301
	c4.96-6.664,11.934-10.687,20.614-10.687c9.921,0,15.811,5.426,15.811,15.035v4.648h-20.305c-16.273,0-31,6.828-31,23.559
	c0,14.879,11.159,24.024,27.124,24.024 M233.589,386.571c-8.526,0-14.415-4.341-14.415-11.625c0-7.439,6.044-11.005,15.499-11.005
	h19.376v3.562c0,12.712-9.921,19.064-20.459,19.064 M318.683,400.209c15.344,0,27.435-6.045,34.254-19.064l-11.934-8.214
	c-6.198,10.075-13.952,12.399-21.854,12.399c-15.036,0-23.558-12.091-23.558-26.194s8.525-26.04,23.558-26.04
	c7.751,0,15.345,2.479,21.234,11.004l11.625-8.525c-6.664-11.471-18.135-17.36-33.325-17.36c-23.87,0-39.835,18.29-39.835,40.919
	S294.813,400.209,318.683,400.209 M429.042,357.274c0-20.925-13.952-39.215-38.131-39.215c-23.25,0-38.439,18.29-38.439,40.919
	c0,22.475,14.881,41.23,40.764,41.23c15.19,0,27.278-6.198,33.479-17.515l-10.688-8.835c-5.423,8.526-13.482,11.779-22.629,11.779
	c-15.036,0-22.784-9.764-24.49-21.7h59.668C428.901,361.732,429.058,359.505,429.042,357.274 M412.459,352.308h-43.233
	c1.861-11.624,9.3-19.839,21.854-19.839c12.711,0,20.613,8.835,21.389,19.53L412.459,352.308z M464.083,398.348h16.119v-64.486
	h17.669v-13.641h-17.669v-12.554c0-5.27,2.79-8.372,9.146-8.372h8.526v-14.249h-12.091c-14.104,0-21.7,7.905-21.7,21.077v14.104
	h-12.866v13.641h12.866V398.348z M539.101,400.209c24.343,0,40.61-18.756,40.61-41.076s-16.277-41.073-40.61-41.073
	s-40.764,18.756-40.764,41.073S514.768,400.209,539.101,400.209 M539.101,385.33c-14.415,0-24.024-11.625-24.024-26.194
	s9.609-26.194,24.024-26.194s24.024,11.625,24.024,26.194S553.516,385.33,539.101,385.33 M588.233,398.348h16.119v-40.15
	c0-12.865,4.186-22.166,19.064-22.166h8.06v-15.965c-1.55-0.62-3.266-0.774-5.27-0.774c-10.229,0-19.839,6.355-22.32,18.443v-17.812
	h-15.653V398.348z"/>
<path fill="#FFFFFF" d="M238.562,157.491v81.528l-56.729-81.528h-15.344v109.427h15.811v-82.148l57.195,82.148h15.039V157.491
	H238.562z M339.309,225.845c0-20.925-13.952-39.215-38.131-39.215c-23.25,0-38.439,18.29-38.439,40.919
	c0,22.475,14.881,41.23,40.764,41.23c15.19,0,27.278-6.198,33.479-17.514l-10.687-8.834c-5.423,8.525-13.483,11.779-22.629,11.779
	c-15.036,0-22.784-9.763-24.49-21.7h59.667C339.168,230.303,339.324,228.075,339.309,225.845 M322.723,220.884h-43.255
	c1.861-11.625,9.3-19.839,21.854-19.839c12.711,0,20.614,8.834,21.389,19.53L322.723,220.884z M434.475,188.491l-15.811,59.371
	L402.069,188.8h-13.795l-16.416,59.042l-16.273-59.371H338.07l25.266,78.429h15.344l16.431-54.559l15.656,54.559h15.499
	l24.953-78.429L434.475,188.491z M538.16,157.491h-72.229v15.499h27.744v93.928h16.746V172.99h27.744L538.16,157.491z
	 M586.363,188.491l-20.78,59.668l-21.233-59.668h-17.812l31.001,78.275l-4.028,10.539c-2.482,6.355-6.977,9.146-14.104,9.146h-9.3
	V300.7h11.158c11.005,0,20.614-3.562,26.504-18.91l35.495-93.308L586.363,188.491z M611.317,300.703h16.119V253.9
	c4.494,9.143,14.249,14.878,25.265,14.878c20.78,0,35.495-16.894,35.495-41.073s-14.724-40.918-35.495-40.918
	c-10.85,0-20.779,4.96-25.573,15.344v-13.641h-15.811V300.703z M649.611,254.203c-13.795,0-22.475-11.779-22.475-26.503
	c0-14.881,8.68-26.503,22.475-26.503c12.245,0,21.854,9.764,21.854,26.349c0,16.739-9.609,26.66-21.854,26.66 M772.059,225.842
	c0-20.925-13.953-39.215-38.129-39.215c-23.249,0-38.439,18.29-38.439,40.919c0,22.475,14.879,41.23,40.764,41.23
	c15.19,0,27.281-6.198,33.479-17.514l-10.687-8.834c-5.424,8.525-13.486,11.779-22.629,11.779c-15.036,0-22.784-9.763-24.491-21.7
	h59.668c0.326-2.207,0.482-4.435,0.466-6.665 M755.476,220.881h-43.255c1.861-11.625,9.301-19.839,21.854-19.839
	c12.709,0,20.614,8.834,21.389,19.53L755.476,220.881z M783.528,232.162h44.021v-14.421h-44.021V232.162z"/>
<path fill="#FFFFFF" d="M712.518,400.737c22.938,0,40.455-10.851,48.049-28.985l-11.315-6.355
	c-6.198,13.795-18.444,22.629-36.271,22.629c-21.233,0-39.522-16.431-39.522-43.863s18.289-43.863,39.368-43.863
	c17.98,0,29.448,8.68,35.804,22.475l11.15-6.358c-7.594-18.135-24.343-28.831-47.274-28.831c-31.155,0-53.63,23.716-53.63,56.575
	c0,32.859,22.475,56.575,53.63,56.575 M770.01,398.873h13.02v-46.191c0-13.952,9.146-21.233,19.219-21.233
	c11.625,0,17.515,7.438,17.515,19.221v48.204h13.044V348.66c0-18.602-9.921-29.605-26.35-29.605
	c-10.85,0-19.996,6.198-23.403,15.189v-48.669h-13.032L770.01,398.873z M868.432,400.422c11.005,0,20.614-4.34,26.195-12.865v0.929
	c0.774,8.681,7.593,10.391,12.091,10.391h7.284v-10.23h-2.944c-2.945,0-4.031-1.24-4.031-3.874v-37.187
	c0-17.669-10.687-28.519-29.605-28.519c-14.415,0-25.42,6.198-31.618,15.811l9.146,7.905c4.494-6.511,11.934-11.471,21.699-11.471
	c10.688,0,17.36,6.044,17.36,16.894v5.115h-22.166c-15.811,0-30.534,6.664-30.534,23.404c0,14.724,11.316,23.716,27.123,23.716
	 M870.757,389.436c-9.301,0-15.811-4.96-15.811-13.175c0-8.68,7.284-12.245,17.98-12.245h21.076v3.266
	c0,15.345-12.245,22.166-23.249,22.166 M953.831,400.606c11.316,0,21.854-6.044,26.504-16.119v14.415h12.711V285.575h-12.999v48.98
	c-4.648-9.454-14.879-15.498-26.195-15.498c-21.545,0-36.115,16.739-36.115,40.764s14.57,40.765,36.115,40.765 M955.401,388.34
	c-13.795,0-24.024-10.85-24.024-28.519c0-17.36,10.229-28.519,24.024-28.519c15.19,0,24.954,12.711,24.954,28.519
	C980.355,375.94,970.592,388.34,955.401,388.34 M1095.055,320.916l-16.749,62.307l-17.048-61.998h-13.021l-16.739,61.844
	l-17.36-62.152h-14.569l24.49,77.963h13.486l17.048-58.591l16.739,58.591h13.329l24.343-77.963H1095.055z M1122.178,304.33
	c4.961,0,8.834-3.874,8.834-8.989s-3.873-8.989-8.834-8.989c-4.96,0-8.844,3.874-8.844,8.986s3.875,8.989,8.835,8.989
	 M1115.659,398.876h13.02v-77.96h-13.02V398.876z M1177.657,400.737c15.19,0,27.278-5.735,33.945-19.064l-9.921-6.664
	c-6.198,10.687-14.724,13.482-23.559,13.482c-16.585,0-26.04-13.02-26.04-28.519s9.455-28.519,26.04-28.519
	c8.526,0,16.895,3.099,22.784,11.625l9.454-7.285c-6.664-10.851-17.668-16.585-32.704-16.585c-23.404,0-39.215,18.289-39.215,40.764
	S1154.253,400.737,1177.657,400.737 M1284.914,398.876l-38.748-43.089l35.803-34.875h-16.894l-32.999,32.396v-67.733h-13.031
	v113.304h13.031v-40.607l35.495,40.61L1284.914,398.876z"/>
<path fill="#FFFFFF" d="M374.399,731.182h5.495l-14.997-40.414h-5.21l-15.169,40.414h5.495l4.007-11.222h16.372L374.399,731.182z
	 M355.68,715.326l6.531-18.203l6.531,18.203H355.68z M387.85,731.182h16.945c7.899,0,12.821-4.293,12.821-11.105
	c0-5.21-2.862-9.102-9.102-9.903c4.452-1.03,6.869-4.58,6.869-9.102c0-6.234-4.922-10.304-12.364-10.304H387.85V731.182z
	 M392.896,708.169v-12.765h9.797c4.637,0,7.386,2.518,7.386,6.296c0,4.293-2.862,6.469-7.154,6.469H392.896z M392.896,726.544
	v-13.738h11.619c4.236,0,7.719,2.232,7.719,6.869c0,4.35-3.15,6.869-7.099,6.869H392.896z M445.102,731.867
	c8.473,0,14.94-4.008,17.746-10.705l-4.18-2.348c-2.289,5.094-6.812,8.356-13.395,8.356c-7.843,0-14.596-6.067-14.596-16.199
	s6.753-16.2,14.546-16.2c6.641,0,10.877,3.206,13.225,8.312l4.12-2.349c-2.805-6.696-8.985-10.647-17.458-10.647
	c-11.506,0-19.806,8.757-19.806,20.893c0,12.135,8.312,20.893,19.806,20.893 M478.712,731.757c4.063,0,7.614-1.603,9.674-4.749
	v0.344c0.297,3.206,2.806,3.836,4.453,3.836h2.689v-3.779h-1.086c-1.087,0-1.484-0.457-1.484-1.431v-13.739
	c0-6.53-3.951-10.532-10.934-10.532c-5.322,0-9.387,2.289-11.678,5.839l3.378,2.919c1.791-2.668,4.802-4.259,8.015-4.236
	c3.951,0,6.412,2.232,6.412,6.233v1.889h-8.184c-5.84,0-11.281,2.461-11.281,8.645c0,5.438,4.18,8.757,10.02,8.757 M479.563,727.688
	c-3.435,0-5.839-1.832-5.839-4.866c0-3.206,2.689-4.521,6.641-4.521h7.783v1.188c0,5.667-4.521,8.184-8.588,8.184 M518.087,731.796
	c7.955,0,13.337-6.184,13.337-15.057s-5.382-15.057-13.337-15.057c-4.181,0-7.956,2.232-9.675,5.724v-18.091h-4.818v41.856h4.693
	v-5.322c1.716,3.72,5.61,5.955,9.797,5.955 M517.511,727.283c-5.61,0-9.202-4.58-9.202-10.532c0-5.839,3.606-10.532,9.202-10.532
	c5.094,0,8.873,4.12,8.873,10.532C526.384,723.282,522.604,727.283,517.511,727.283 M552.242,731.864
	c5.611,0,10.076-2.12,12.537-7.042l-3.664-2.461c-2.288,3.951-5.438,4.981-8.7,4.981c-6.124,0-9.618-4.809-9.618-10.532
	s3.491-10.532,9.618-10.532c3.146,0,6.233,1.146,8.416,4.292l3.49-2.689c-2.461-4.008-6.53-6.124-12.079-6.124
	c-8.644,0-14.483,6.754-14.483,15.057s5.84,15.057,14.483,15.057 M580.12,731.185h4.812v-37.556h-4.008l-11.334,5.552v4.928
	l10.532-5.047L580.12,731.185z M595.574,731.185h26.168v-4.236H602.91c14.94-10.983,18.488-16.372,18.488-22.562
	c0-6.067-4.008-11.449-12.593-11.449c-6.813,0-11.577,3.491-13.566,8.188l3.892,2.404c1.716-3.435,4.922-6.068,9.5-6.068
	c4.98,0,7.718,2.919,7.718,7.387c0,4.749-3.319,9.499-20.78,22.952L595.574,731.185z M643.487,731.87
	c8.128,0,13.566-4.581,13.566-11.28c0-4.521-3.206-8.356-8.473-9.046c4.453-1.03,6.926-4.352,6.926-8.528
	c0-6.012-4.75-10.075-12.364-10.075c-4.922,0-9.675,1.719-13.062,6.641l3.72,2.749c2.176-3.319,5.551-4.865,9.273-4.865
	c4.922,0,7.442,2.576,7.442,5.839c0,3.378-2.633,6.184-7.786,6.184h-3.771v4.236h3.779c6.011,0,9.273,2.461,9.273,6.696
	c0,4.408-3.435,6.926-8.588,6.926c-4.693,0-8.473-2.004-10.648-6.296l-4.008,2.404c2.749,6.012,8.817,8.416,14.713,8.416
	 M699.29,731.185l-6.985-8.016c1.947-3.435,3.206-7.442,3.836-11.161h-4.638c-0.422,2.616-1.212,5.159-2.345,7.555l-8.045-9.221
	l2.518-1.484c3.892-2.348,6.296-5.438,6.296-9.499c0-5.551-4.408-9.273-10.36-9.273c-6.184,0-10.359,3.951-10.359,9.387
	c0,3.719,2.003,6.756,4.521,9.617l0.401,0.514l-0.116,0.057c-6.353,3.663-8.188,7.442-8.188,11.162
	c0,6.067,4.81,11.049,12.468,11.049c4.238,0.068,8.302-1.683,11.162-4.81l3.606,4.121L699.29,731.185z M676.851,705.482
	c-1.781-2.06-2.689-4.18-2.689-6.011c0-2.862,2.232-4.981,5.382-4.981s5.667,2.06,5.667,5.322c0,1.947-0.857,3.836-4.236,5.783
	l-2.689,1.546L676.851,705.482z M678.632,727.405c-3.491,0-7.555-1.888-7.555-6.869c0-2.176,0.801-4.693,5.723-7.614l0.173-0.115
	l9.559,10.876c-2.004,2.232-4.581,3.72-7.899,3.72"/>
<path fill="#FFFFFF" d="M601.423,663.504h1.146v-13.251h3.521v-0.944h-3.523v-3.577c0-1.188,0.659-2.146,2.232-2.146h1.431v-1
	h-1.633c-1.745,0-3.176,1.06-3.176,3.063v3.663h-2.491v0.944h2.491L601.423,663.504z M615.992,663.935c4.436,0,7.3-3.464,7.3-7.469
	s-2.861-7.499-7.3-7.499c-4.438,0-7.312,3.462-7.312,7.496s2.861,7.469,7.3,7.469 M615.98,662.872c-3.779,0-6.098-3.034-6.098-6.412
	s2.318-6.438,6.098-6.438s6.098,3.033,6.098,6.438C622.078,659.864,619.729,662.872,615.98,662.872 M627.745,663.501h1.146v-7.528
	c0-2.633,1.146-5.61,4.809-5.61h0.975v-1.06c-0.276-0.036-0.554-0.055-0.832-0.057c-1.888,0-4.206,0.891-4.98,3.72v-3.657h-1.116
	V663.501z M659.458,643.294h-13.109v1.087h5.97v19.12h1.188v-19.12h5.981L659.458,643.294z M674.024,656.317
	c0.067-0.262,0.097-0.531,0.086-0.802c-0.049-3.655-3.041-6.584-6.696-6.555c-4.267,0-6.828,3.521-6.828,7.499
	c0,4.156,2.806,7.469,7.184,7.469c2.375,0,4.922-1,6.012-3.435l-0.891-0.487c-0.914,1.948-3.004,2.862-5.124,2.862
	c-3.749,0-5.981-2.806-5.981-6.412v-0.143L674.024,656.317z M667.384,650.021c3.606,0,5.524,3.004,5.524,5.15v0.172h-11.075
	C662.204,652.595,664.035,650.021,667.384,650.021 M688.793,663.501l-5.465-7.326l5.064-6.869h-1.342l-4.373,6.118l-4.408-6.124
	h-1.461l5.15,7.012l-5.322,7.184h1.401l4.58-6.438l4.667,6.438L688.793,663.501z M696.321,663.501h2.203v-1h-2.004
	c-1.573,0-2.232-1.003-2.232-2.206V650.25h4.094v-0.944h-4.094v-4.156h-1.146v4.156h-2.517v0.944h2.517v10.221
	c0,2.004,1.432,3.033,3.177,3.033"/>
<path fill="#FFFFFF" d="M792.502,804.489h1.146v-13.254h3.521v-0.944h-3.521v-3.562c0-1.188,0.659-2.146,2.232-2.146h1.431v-1
	h-1.633c-1.745,0-3.177,1.06-3.177,3.063v3.663h-2.49v0.944h2.49V804.489z M807.072,804.92c4.435,0,7.3-3.464,7.3-7.469
	s-2.862-7.498-7.3-7.498c-4.438,0-7.3,3.464-7.3,7.498S802.634,804.92,807.072,804.92 M807.072,803.86
	c-3.779,0-6.098-3.034-6.098-6.412s2.318-6.438,6.098-6.438s6.098,3.033,6.098,6.438S810.821,803.86,807.072,803.86
	 M818.836,804.489h1.146v-7.528c0-2.633,1.146-5.61,4.809-5.61h0.974v-1.06c-0.275-0.036-0.553-0.055-0.831-0.057
	c-1.888,0-4.206,0.891-4.98,3.72v-3.663h-1.117V804.489z M853.812,784.283v9.157h-12.966v-9.157h-1.188v20.206h1.188v-9.959h12.966
	v9.959h1.188v-20.206H853.812z M873.217,797.306c0.067-0.262,0.097-0.531,0.087-0.802c-0.049-3.655-3.042-6.584-6.697-6.555
	c-4.266,0-6.828,3.521-6.828,7.499c0,4.156,2.806,7.469,7.185,7.469c2.375,0,4.922-1,6.011-3.435l-0.891-0.486
	c-0.914,1.947-3.004,2.861-5.123,2.861c-3.749,0-5.981-2.806-5.981-6.412v-0.143L873.217,797.306z M866.576,791.01
	c3.607,0,5.525,3.004,5.525,5.15v0.172h-11.094c0.371-2.749,2.202-5.322,5.551-5.322 M881.298,804.805
	c2.431,0,4.521-1.232,5.267-3.233v0.401c0,1.974,1.187,2.518,2.231,2.518h0.594v-0.936h-0.4c-0.802,0-1.345-0.457-1.345-1.547
	v-7.157c0-2.918-1.746-4.892-5.094-4.892c-2.289,0-4.293,0.974-5.323,2.832l0.858,0.543c0.917-1.573,2.689-2.318,4.435-2.318
	c2.672,0,3.978,1.517,3.978,4.008v1.46h-4.666c-3.063,0-5.495,1.188-5.495,4.156c0,2.288,1.947,4.18,4.952,4.18 M881.345,803.789
	c-2.576,0-3.806-1.573-3.806-3.235c0-2.034,1.484-3.091,4.453-3.091h4.545v1.188c0,3.979-3.09,5.124-5.15,5.124 M898.901,804.92
	c2.659,0.066,5.026-1.677,5.753-4.236v3.807h1.146v-20.923h-1.154v10.648c-0.917-2.72-3.12-4.263-5.753-4.263
	c-3.72,0-6.439,3.063-6.439,7.498c0,4.436,2.72,7.469,6.439,7.469 M898.979,803.86c-3.177,0-5.322-2.749-5.322-6.382
	c0-3.634,2.119-6.469,5.343-6.469c3.319,0,5.667,3.004,5.667,6.382c0,3.379-2.348,6.469-5.696,6.469 M913.768,804.49h1.518v-1.001
	h-1.345c-0.6,0.056-1.13-0.386-1.185-0.985c-0.005-0.053-0.006-0.107-0.003-0.16v-18.776h-1.146v18.862
	c0,1.231,0.858,2.061,2.146,2.061 M919.705,786.602c0.522,0.015,0.959-0.396,0.974-0.92c0.001-0.018,0.001-0.036,0-0.054
	c0-0.538-0.437-0.974-0.974-0.974c-0.538,0-0.974,0.436-0.974,0.974c-0.015,0.522,0.396,0.958,0.919,0.974
	C919.669,786.602,919.688,786.602,919.705,786.602 M919.132,804.49h1.146v-14.196h-1.146V804.49z M925.96,804.49h1.146v-8.986
	c0-2.518,2.033-4.494,4.693-4.494c2.004,0,3.72,1.146,3.72,4.322v9.158h1.188v-9.417c0-3.232-1.802-5.123-4.667-5.123
	c-2.289,0-4.156,1.231-4.895,3.206v-2.862h-1.146L925.96,804.49z M954.458,797.306c0.066-0.262,0.096-0.531,0.086-0.802
	c-0.049-3.654-3.042-6.584-6.697-6.555c-4.266,0-6.827,3.521-6.827,7.499c0,4.156,2.805,7.469,7.184,7.469
	c2.375,0,4.922-1,6.012-3.435l-0.891-0.486c-0.918,1.947-3.005,2.861-5.124,2.861c-3.749,0-5.981-2.806-5.981-6.412v-0.143
	L954.458,797.306z M947.817,791.01c3.606,0,5.524,3.004,5.524,5.15v0.172h-11.076C942.637,793.583,944.469,791.01,947.817,791.01"/>
<path fill="#FFFFFF" d="M820.294,863.439h5.495l-14.997-40.414h-5.207l-15.169,40.414h5.494l4.008-11.222h16.371L820.294,863.439z
	 M801.574,847.581l6.531-18.203l6.53,18.203H801.574z M839.756,863.439h9.102c7.899,0,12.821-4.293,12.821-11.105
	c0-5.21-2.862-9.102-9.102-9.903c4.452-1.03,6.869-4.58,6.869-9.102c0-6.233-4.922-10.304-12.364-10.304h-15.166v31.481
	L839.756,863.439z M836.95,840.427v-12.765h9.797c4.637,0,7.386,2.518,7.386,6.297c0,4.292-2.862,6.468-7.154,6.468H836.95z
	 M841.76,858.803l-4.81-5.438v-8.312h11.622c4.236,0,7.719,2.232,7.719,6.869c0,4.349-3.146,6.869-7.098,6.869L841.76,858.803z
	 M888.069,864.125c8.472,0,14.94-4.008,17.746-10.705l-4.181-2.348c-2.288,5.094-6.812,8.356-13.394,8.356
	c-0.767,0.001-1.531-0.057-2.289-0.173l-12.18-13.845c-0.057-0.745-0.116-1.431-0.116-2.176c0-10.132,6.754-16.199,14.547-16.199
	c6.641,0,10.876,3.206,13.225,8.312l4.12-2.348c-2.806-6.697-8.985-10.648-17.458-10.648c-11.506,0-19.807,8.757-19.807,20.893
	c-0.001,0.992,0.057,1.983,0.173,2.969l15.397,17.514c1.395,0.281,2.814,0.415,4.236,0.401 M920.776,864.012
	c4.064,0,7.614-1.603,9.618-4.693l3.607,4.124h1.029v-18.951c0-6.531-3.951-10.532-10.933-10.532c-5.323,0-9.39,2.291-11.679,5.839
	l3.378,2.918c1.792-2.668,4.802-4.259,8.016-4.236c3.951,0,6.412,2.232,6.412,6.234v1.885h-8.188c-5.839,0-11.28,2.461-11.28,8.645
	c0,5.438,4.18,8.757,10.019,8.757 M921.635,859.937c-3.436,0-5.84-1.832-5.84-4.865c0-3.206,2.689-4.521,6.641-4.521h7.787v1.188
	c0,5.667-4.521,8.185-8.588,8.185 M958.147,864.045c7.956,0,13.338-6.184,13.338-15.057s-5.382-15.057-13.338-15.057
	c-4.18,0-7.956,2.232-9.675,5.724v-18.091h-4.809v41.857h4.693v-5.306c1.719,3.72,5.61,5.955,9.796,5.955 M957.58,859.551
	c-5.61,0-9.202-4.581-9.202-10.533c0-5.839,3.606-10.532,9.202-10.532c5.095,0,8.873,4.12,8.873,10.532
	C966.453,855.549,962.675,859.551,957.58,859.551 M991.564,864.113c5.551,0,10.075-2.461,12.593-6.985l-3.606-2.518
	c-2.289,3.72-5.438,4.981-8.816,4.981c-6.697,0-9.903-4.865-9.903-10.132c0-5.379,3.206-10.419,10.188-10.419h8.808v-4.408h-9.262
	c-9.158,0.056-14.769,6.925-14.769,14.824S982.406,864.113,991.564,864.113 M1018.24,863.428h4.809v-37.553h-4.008l-11.334,5.555
	v4.922l10.533-5.047V863.428z M1032.264,863.428h26.152v-4.236h-18.832c14.94-10.984,18.488-16.372,18.488-22.562
	c0-6.067-4.008-11.449-12.593-11.449c-6.812,0-11.577,3.491-13.566,8.187l3.892,2.405c1.716-3.435,4.922-6.067,9.5-6.067
	c4.98,0,7.718,2.921,7.718,7.385c0,4.75-3.318,9.5-20.78,22.953L1032.264,863.428z M1079.259,864.113
	c8.128,0,13.566-4.581,13.566-11.281c0-4.521-3.206-8.355-8.473-9.045c4.453-1.029,6.926-4.352,6.926-8.528
	c0-6.012-4.75-10.075-12.364-10.075c-4.922,0-9.674,1.719-13.062,6.641l3.72,2.749c2.176-3.319,5.551-4.865,9.273-4.865
	c4.922,0,7.442,2.576,7.442,5.839c0,3.378-2.633,6.184-7.783,6.184h-3.762v4.236h3.779c6.011,0,9.273,2.461,9.273,6.696
	c0,4.409-3.435,6.926-8.588,6.926c-4.693,0-8.472-2.004-10.648-6.296l-4.007,2.404c2.748,6.012,8.816,8.416,14.712,8.416
	 M1126.889,855.412c1.947-3.435,3.206-7.441,3.836-11.161h-4.637c-1.188,6.984-4.981,15.397-12.881,15.397
	c-3.491,0-7.555-1.888-7.555-6.869c0-2.176,0.801-4.693,5.723-7.614l6.812-4.063c3.893-2.349,6.297-5.438,6.297-9.5
	c0-5.551-4.408-9.273-10.36-9.273c-6.184,0-10.36,3.951-10.36,9.387c0,3.72,2.004,6.756,4.521,9.618l0.457,0.513l-0.172,0.057
	c-6.354,3.663-8.188,7.442-8.188,11.162c0,6.067,4.809,11.049,12.468,11.049c5.782,0,9.903-2.805,12.765-6.754v6.068h8.244v-0.745
	L1126.889,855.412z M1111.435,837.723c-1.781-2.061-2.689-4.18-2.689-6.012c0-2.861,2.232-4.98,5.382-4.98s5.667,2.06,5.667,5.325
	c0,1.944-0.857,3.835-4.236,5.78l-2.689,1.546L1111.435,837.723z"/>
<path fill="#FFFFFF" d="M842.033,420.314v46.654h-58.745v-46.654h-13.641v109.427h34.254v-12.399h-20.613v-37.656h58.745v50.064
	h13.631V420.314H842.033z M904.497,531.603c24.179,0,39.989-19.222,39.989-40.919c0-21.696-15.796-40.767-39.989-40.767
	c-24.194,0-40.144,19.063-40.144,40.764s15.965,40.919,40.144,40.919 M904.497,519.354c-16.276,0-26.503-13.329-26.503-28.674
	c0-15.035,10.229-28.519,26.503-28.519s26.349,13.486,26.349,28.519C930.846,506.025,920.771,519.354,904.497,519.354
	 M956.574,449.917h-2.79v79.824h13.02v-63.394h27.59v-14.249c-0.929-0.297-4.648-0.774-6.664-0.774
	c-10.39,0-17.049,6.51-20.926,11.316L956.574,449.917z M1032.676,531.291c16.277,0,29.451-8.368,29.451-23.25
	c0-11.625-6.355-18.598-20.926-22.009l-13.64-3.266c-9.921-2.324-13.021-4.806-13.021-10.541c0-6.198,6.044-10.229,15.036-10.229
	c11.004,0,17.98,3.72,22.783,8.988l8.06-8.368c-6.355-8.06-15.811-12.399-30.068-12.399c-16.739,0-28.83,8.989-28.83,22.166
	c0,13.641,9.608,19.839,22.783,22.941l11.625,2.79c9.146,2.17,13.174,5.115,13.174,10.075c0,7.905-8.214,11.316-16.119,11.316
	c-9.609,0-18.601-3.562-24.799-12.245l-9.455,6.976c6.828,11.934,21.076,17.049,33.945,17.049 M1142.103,479.205l-24.342-27.744
	c-6.828-1.55-9.609-1.55-12.399-1.55c-23.25,0-37.975,18.289-37.975,40.765c0,22.475,14.725,40.918,39.523,40.918
	c15.036,0,27.281-6.355,34.1-18.909l-9.92-6.665c-6.045,10.075-14.416,13.329-24.025,13.329c-15.811,0-24.49-10.687-26.04-24.342
	h61.069L1142.103,479.205z M1130.632,484.785h-49.277c1.704-12.865,9.454-22.629,24.179-22.629c1.861,0,3.41,0.154,6.355,0.775
	l18.755,21.699L1130.632,484.785z M1154.811,529.735h13.021v-66.644h17.046v-11.311h-17.049v-23.404h17.049v-11.934h-9.455
	c-13.641,0-20.613,7.439-20.613,20.15v14.249l-14.25,9.455v2.79h14.25L1154.811,529.735z M1260.981,479.205l-24.343-27.744
	c-6.827-1.55-9.609-1.55-12.399-1.55c-23.249,0-37.974,18.289-37.974,40.765c0,22.475,14.725,40.918,39.523,40.918
	c15.035,0,27.281-6.355,34.1-18.909l-9.921-6.665c-6.044,10.075-14.415,13.329-24.024,13.329c-15.811,0-24.49-10.687-26.04-24.342
	h61.069L1260.981,479.205z M1249.511,484.785h-49.278c1.704-12.865,9.455-22.629,24.18-22.629c1.861,0,3.41,0.154,6.355,0.775
	l18.755,21.699L1249.511,484.785z M1273.689,449.911h-2.79v79.824h13.02v-63.388h27.59v-14.249
	c-0.929-0.297-4.648-0.774-6.664-0.774c-10.39,0-17.049,6.51-20.926,11.316L1273.689,449.911z M1321.893,449.911h-2.79v79.824
	h13.015v-63.388h27.607v-14.249c-0.93-0.297-4.648-0.774-6.665-0.774c-10.39,0-17.048,6.51-20.925,11.316L1321.893,449.911z
	 M1425.893,451.772l-22.163,62.934l-23.403-62.934h-14.725l31.31,78.583l-4.494,11.316c-2.636,6.828-7.285,10.075-14.725,10.075
	h-8.834v11.779h10.075c9.301,0,19.839-2.479,26.04-18.909l35.029-92.845H1425.893z"/>
<path fill="#FFFFFF" d="M772.688,547.841v326.068 M712.669,416.44V742.51"/>
</svg>
